<?xml version="1.0" encoding="UTF-8" standalone="no"?>
<!-- Created with Inkscape (http://www.inkscape.org/) -->

<svg
   width="124.59586mm"
   height="37.195549mm"
   viewBox="0 0 470.91348 140.5816"
   version="1.1"
   id="svg1"
   inkscape:version="1.3 (0e150ed6c4, 2023-07-21)"
   sodipodi:docname="practice6.svg"
   xmlns:inkscape="http://www.inkscape.org/namespaces/inkscape"
   xmlns:sodipodi="http://sodipodi.sourceforge.net/DTD/sodipodi-0.dtd"
   xmlns="http://www.w3.org/2000/svg"
   xmlns:svg="http://www.w3.org/2000/svg">
  <sodipodi:namedview
     id="namedview1"
     pagecolor="#505050"
     bordercolor="#eeeeee"
     borderopacity="1"
     inkscape:showpageshadow="0"
     inkscape:pageopacity="0"
     inkscape:pagecheckerboard="0"
     inkscape:deskcolor="#d1d1d1"
     inkscape:document-units="mm"
     showgrid="false"
     inkscape:zoom="0.35355339"
     inkscape:cx="-284.25693"
     inkscape:cy="349.31075"
     inkscape:window-width="1920"
     inkscape:window-height="1017"
     inkscape:window-x="-7"
     inkscape:window-y="-8"
     inkscape:window-maximized="1"
     inkscape:current-layer="layer1">
    <inkscape:grid
       id="grid1"
       units="px"
       originx="-69.954567"
       originy="-590.83561"
       spacingx="1"
       spacingy="1"
       empcolor="#0099e5"
       empopacity="0.30196078"
       color="#0099e5"
       opacity="0.14901961"
       empspacing="5"
       dotted="false"
       gridanglex="30"
       gridanglez="30"
       visible="false" />
  </sodipodi:namedview>
  <defs
     id="defs1">
    <inkscape:path-effect
       effect="fillet_chamfer"
       id="path-effect1015"
       is_visible="true"
       lpeversion="1"
       nodesatellites_param="F,0,0,1,0,0,0,1 @ F,0,0,1,0,0,0,1 @ F,0,0,1,0,28.56836,0,1 @ F,0,0,1,0,0,0,1 @ F,0,0,1,0,0,0,1 @ F,0,0,1,0,24.604061,0,1"
       radius="0"
       unit="px"
       method="auto"
       mode="F"
       chamfer_steps="1"
       flexible="false"
       use_knot_distance="true"
       apply_no_radius="true"
       apply_with_radius="true"
       only_selected="false"
       hide_knots="false" />
  </defs>
  <g
     inkscape:label="Ebene 1"
     inkscape:groupmode="layer"
     id="layer1"
     transform="translate(-69.954568,-590.83562)">
    <path
       id="rect1013"
       style="opacity:1;fill:#ffffff;fill-opacity:1;stroke:#000000;stroke-width:45.3543;stroke-linecap:square;stroke-dasharray:none;stroke-opacity:1;paint-order:stroke fill markers"
       d="m 92.631735,613.51286 c 0,19.04536 21.723725,28.56637 43.670655,28.56818 h 94.6321 c 0.17998,-0.019 0.35938,-0.0277 0.53937,-0.0372 10.53813,0.002 19.0804,8.54456 19.08269,19.08269 -0.002,10.53794 -8.54465,19.08031 -19.08269,19.08259 -0.17999,-0.01 -0.35939,-0.0181 -0.53937,-0.0372 H 92.631735 c 0,19.04536 24.057655,28.56818 43.652085,28.56818 h 95.22727 c 26.37795,0 47.61363,-21.23587 47.61363,-47.61363 0,-26.37795 -21.23568,-47.61363 -47.61363,-47.61363 h -95.22727 z m 38.090915,38.0909 c -5.27559,0 -9.52273,4.24715 -9.52273,9.52273 0,5.27559 4.24714,9.52273 9.52273,9.52273 h 9.52272 c 5.27559,0 9.52273,-4.24714 9.52273,-9.52273 0,-5.27558 -4.24714,-9.52273 -9.52273,-9.52273 z" />
    <path
       id="rect1014"
       style="opacity:1;fill:#ffffff;fill-opacity:1;stroke:#000000;stroke-width:45.3543;stroke-linecap:square;stroke-dasharray:none;stroke-opacity:1;paint-order:stroke fill markers"
       d="m 316.63087,613.51369 v 95.22656 h 157.92578 a 28.56836,28.56836 135 0 0 28.56836,-28.56836 h -156.1211 v -42.05414 a 24.604061,24.604061 45 0 0 -24.60406,-24.60406 z"
       inkscape:path-effect="#path-effect1015"
       inkscape:original-d="m 316.63087,613.51369 v 95.22656 h 186.49414 v -28.56836 h -156.1211 v -66.6582 z"
       transform="translate(15.065909,-1.3474121e-4)"
       inkscape:export-filename="rect1014.png"
       inkscape:export-xdpi="300"
       inkscape:export-ydpi="300" />
  </g>
</svg>
